<svg xmlns="http://www.w3.org/2000/svg" xmlns:xlink="http://www.w3.org/1999/xlink" width="35" height="40" version="1.1" viewBox="0 0 35 40"><title>CK Mark</title><desc>Created with Sketch.</desc><g id="CK-Mark" fill="none" stroke="none" fillRule="evenodd" strokeWidth="1"><g id="Group-2"><rect id="Rectangle" width="23" height="23" x="6" y="8" fill="#FFF" fillRule="nonzero"/><path id="Fill-1" fill="#3D9CE5" d="M17.8365217,19.2595723 L17.8365217,10.1212075 L26.8613665,10.1212075 C26.8613665,15.1682516 22.8206211,19.2595723 17.8365217,19.2595723 L17.8365217,19.2595723 Z M17.8365217,29.8786918 L17.8365217,20.740327 C22.8206211,20.740327 26.8613665,24.8316478 26.8613665,29.8786918 L17.8365217,29.8786918 Z M16.3741615,19.2595723 L7.34931677,19.2595723 C7.34931677,14.2127799 11.3898137,10.1212075 16.3741615,10.1212075 L16.3741615,19.2595723 Z M16.3741615,29.8786918 C11.3898137,29.8786918 7.34931677,25.7873711 7.34931677,20.740327 L16.3741615,20.740327 L16.3741615,29.8786918 Z M31.0954037,8.17881761 L17.1053416,-5.03144656e-05 L3.1152795,8.17881761 C1.18757764,9.30561006 0,11.3883774 0,13.6424654 L0,26.357434 C0,28.611522 1.18757764,30.6942893 3.1152795,31.8213333 L17.1053416,39.9999497 L31.0954037,31.8213333 C33.0231056,30.6942893 34.2106832,28.611522 34.2106832,26.357434 L34.2106832,13.6424654 C34.2106832,11.3883774 33.0231056,9.30561006 31.0954037,8.17881761 L31.0954037,8.17881761 Z"/></g></g></svg>